<svg xmlns="http://www.w3.org/2000/svg" xmlns:xlink="http://www.w3.org/1999/xlink" width="500" zoomAndPan="magnify" viewBox="0 0 375 374.999991" height="500" preserveAspectRatio="xMidYMid meet" version="1.0"><defs><clipPath id="a737a4abd6"><path d="M 232.558594 10.804688 L 375 10.804688 L 375 153.410156 L 232.558594 153.410156 Z M 232.558594 10.804688 " clip-rule="nonzero"/></clipPath></defs><g clip-path="url(#a737a4abd6)"><path fill="#259f87" d="M 362.046875 69.074219 L 316.726562 69.074219 L 316.726562 23.753906 C 316.726562 22.902344 316.644531 22.0625 316.476562 21.226562 C 316.3125 20.394531 316.066406 19.582031 315.742188 18.796875 C 315.414062 18.011719 315.015625 17.265625 314.542969 16.558594 C 314.070312 15.851562 313.535156 15.199219 312.933594 14.597656 C 312.332031 13.996094 311.679688 13.457031 310.972656 12.988281 C 310.265625 12.515625 309.519531 12.113281 308.734375 11.789062 C 307.949219 11.464844 307.136719 11.21875 306.304688 11.054688 C 305.46875 10.886719 304.628906 10.804688 303.777344 10.804688 C 302.925781 10.804688 302.085938 10.886719 301.25 11.054688 C 300.417969 11.21875 299.609375 11.464844 298.824219 11.789062 C 298.035156 12.113281 297.289062 12.515625 296.582031 12.988281 C 295.875 13.457031 295.222656 13.996094 294.621094 14.597656 C 294.019531 15.199219 293.484375 15.851562 293.011719 16.558594 C 292.539062 17.265625 292.140625 18.011719 291.816406 18.796875 C 291.488281 19.582031 291.242188 20.394531 291.078125 21.226562 C 290.910156 22.0625 290.828125 22.902344 290.828125 23.753906 L 290.828125 69.074219 L 245.507812 69.074219 C 244.65625 69.074219 243.816406 69.15625 242.980469 69.324219 C 242.148438 69.488281 241.335938 69.734375 240.550781 70.058594 C 239.765625 70.386719 239.019531 70.785156 238.3125 71.257812 C 237.605469 71.730469 236.953125 72.265625 236.351562 72.867188 C 235.75 73.46875 235.214844 74.121094 234.742188 74.828125 C 234.269531 75.535156 233.871094 76.28125 233.542969 77.066406 C 233.21875 77.851562 232.972656 78.664062 232.808594 79.496094 C 232.640625 80.332031 232.558594 81.171875 232.558594 82.023438 C 232.558594 82.875 232.640625 83.714844 232.808594 84.550781 C 232.972656 85.382812 233.21875 86.191406 233.542969 86.980469 C 233.871094 87.765625 234.269531 88.511719 234.742188 89.21875 C 235.214844 89.925781 235.75 90.578125 236.351562 91.179688 C 236.953125 91.78125 237.605469 92.316406 238.3125 92.789062 C 239.019531 93.261719 239.765625 93.660156 240.550781 93.988281 C 241.335938 94.3125 242.148438 94.558594 242.980469 94.722656 C 243.816406 94.890625 244.65625 94.972656 245.507812 94.972656 L 290.828125 94.972656 L 290.828125 140.292969 C 290.828125 141.144531 290.910156 141.984375 291.078125 142.820312 C 291.242188 143.652344 291.488281 144.464844 291.816406 145.25 C 292.140625 146.035156 292.539062 146.78125 293.011719 147.488281 C 293.484375 148.195312 294.019531 148.847656 294.621094 149.449219 C 295.222656 150.050781 295.875 150.585938 296.582031 151.058594 C 297.289062 151.53125 298.035156 151.929688 298.824219 152.257812 C 299.609375 152.582031 300.417969 152.828125 301.25 152.992188 C 302.085938 153.160156 302.925781 153.242188 303.777344 153.242188 C 304.628906 153.242188 305.46875 153.160156 306.304688 152.992188 C 307.136719 152.828125 307.949219 152.582031 308.734375 152.257812 C 309.519531 151.929688 310.265625 151.53125 310.972656 151.058594 C 311.679688 150.585938 312.332031 150.050781 312.933594 149.449219 C 313.535156 148.847656 314.070312 148.195312 314.542969 147.488281 C 315.015625 146.78125 315.414062 146.035156 315.742188 145.25 C 316.066406 144.464844 316.3125 143.652344 316.476562 142.820312 C 316.644531 141.984375 316.726562 141.144531 316.726562 140.292969 L 316.726562 94.972656 L 362.046875 94.972656 C 362.898438 94.972656 363.742188 94.890625 364.574219 94.722656 C 365.40625 94.558594 366.21875 94.3125 367.003906 93.988281 C 367.789062 93.660156 368.535156 93.261719 369.242188 92.789062 C 369.949219 92.316406 370.601562 91.78125 371.203125 91.179688 C 371.804688 90.578125 372.34375 89.925781 372.816406 89.21875 C 373.285156 88.511719 373.6875 87.765625 374.011719 86.980469 C 374.335938 86.191406 374.582031 85.382812 374.75 84.550781 C 374.914062 83.714844 374.996094 82.875 374.996094 82.023438 C 374.996094 81.171875 374.914062 80.332031 374.75 79.496094 C 374.582031 78.664062 374.335938 77.851562 374.011719 77.066406 C 373.6875 76.28125 373.285156 75.535156 372.816406 74.828125 C 372.34375 74.121094 371.804688 73.46875 371.203125 72.867188 C 370.601562 72.265625 369.949219 71.730469 369.242188 71.257812 C 368.535156 70.785156 367.789062 70.386719 367.003906 70.058594 C 366.21875 69.734375 365.40625 69.488281 364.574219 69.324219 C 363.742188 69.15625 362.898438 69.074219 362.046875 69.074219 Z M 362.046875 69.074219 " fill-opacity="1" fill-rule="nonzero"/></g><path fill="#259f87" d="M 289.667969 345.277344 C 289.707031 345.207031 289.742188 345.132812 289.757812 345.050781 C 290.125 343.445312 290.09375 341.761719 289.660156 340.171875 C 291.382812 335.425781 291 330.125 289.234375 325.449219 C 287.128906 319.890625 283.21875 315.261719 278.832031 311.34375 C 273.910156 306.945312 268.339844 303.363281 263.25 299.171875 C 258.480469 295.246094 254.160156 290.746094 250.460938 285.792969 C 247.65625 282.035156 245.195312 278.015625 243.105469 273.8125 C 243.382812 272.40625 243.175781 270.988281 242.777344 269.621094 C 242.324219 268.070312 241.726562 266.558594 241.191406 265.035156 C 241.160156 264.953125 241.117188 264.890625 241.066406 264.832031 C 242.988281 261.554688 242.128906 257.160156 239.902344 254.125 C 239.851562 254.054688 239.789062 254.003906 239.722656 253.960938 C 238.339844 247.300781 235.082031 241.132812 230.375 236.214844 C 230.265625 236.101562 230.144531 236.046875 230.027344 236.011719 C 230.019531 235.976562 230.019531 235.945312 230.011719 235.910156 C 230.015625 235.90625 230.023438 235.902344 230.03125 235.898438 C 231.222656 234.738281 231.796875 233.066406 231.632812 231.421875 C 231.820312 231.257812 231.929688 230.992188 231.796875 230.707031 C 231.324219 229.664062 230.269531 229.335938 229.308594 228.882812 C 228.25 228.382812 227.457031 227.570312 226.722656 226.679688 C 225.421875 225.09375 224.214844 223.351562 222.222656 222.632812 C 222.289062 222.082031 222.226562 221.511719 222.132812 220.964844 C 221.953125 219.894531 221.871094 218.890625 222.171875 217.832031 C 222.476562 216.769531 223.367188 215.964844 223.59375 214.910156 C 223.765625 214.097656 223.351562 213.3125 222.566406 213.058594 C 222.40625 213.007812 222.273438 213.03125 222.160156 213.085938 C 222.09375 213.066406 222.023438 213.054688 221.941406 213.0625 C 221.800781 213.074219 221.667969 213.097656 221.53125 213.113281 C 220.882812 208.382812 218.101562 204.121094 213.980469 201.679688 C 215.117188 200.320312 215.945312 198.695312 216.035156 196.894531 C 216.035156 196.886719 216.035156 196.878906 216.035156 196.871094 C 216.242188 196.800781 216.410156 196.621094 216.417969 196.335938 C 216.449219 194.296875 216.390625 192.257812 216.234375 190.222656 C 216.09375 188.445312 215.917969 186.613281 215.097656 185 C 214.09375 183.03125 212.363281 181.789062 210.40625 180.976562 C 210.40625 180.941406 210.414062 180.902344 210.398438 180.867188 C 209.964844 179.601562 209.335938 178.425781 208.546875 177.355469 C 208.574219 177.324219 208.605469 177.28125 208.625 177.234375 C 210.957031 172.289062 210.273438 166.277344 206.953125 161.957031 C 207.273438 161.71875 207.558594 161.4375 207.789062 161.09375 C 208.691406 159.726562 208.597656 157.839844 208.546875 156.273438 C 208.511719 155.304688 208.417969 154.300781 208.121094 153.371094 C 208.265625 153.246094 208.347656 153.058594 208.277344 152.8125 C 207.578125 150.464844 206.875 148.117188 206.175781 145.769531 C 205.570312 143.738281 204.964844 141.601562 203.449219 140.039062 C 202.542969 139.105469 201.414062 138.453125 200.207031 137.984375 C 198.488281 132.824219 198.917969 127.363281 198.75 122.011719 C 198.578125 116.496094 197.441406 111.101562 195.199219 106.042969 C 194.089844 103.535156 192.742188 100.628906 190.097656 99.4375 C 187.757812 98.386719 185.066406 98.699219 182.605469 99.078125 C 181.523438 99.242188 180.433594 99.460938 179.347656 99.734375 C 179.269531 99.710938 179.1875 99.691406 179.085938 99.699219 C 173.480469 100.148438 167.75 101.148438 163.585938 105.265625 C 159.859375 108.941406 158.179688 114.132812 158.820312 119.28125 C 151.945312 118.105469 144.867188 117.777344 137.859375 117.300781 C 137.828125 117.285156 137.800781 117.265625 137.765625 117.253906 C 137.105469 117.058594 136.441406 116.867188 135.777344 116.671875 C 135.703125 116.597656 135.617188 116.539062 135.496094 116.496094 C 124.828125 112.773438 116.054688 104.304688 112.148438 93.675781 C 110.34375 88.765625 109.527344 83.511719 109.789062 78.285156 C 110.046875 73.113281 112 67.90625 109.996094 62.847656 C 108.960938 60.226562 107.0625 57.773438 104.589844 56.355469 C 102.464844 55.132812 99.496094 55.042969 98.019531 57.199219 C 97.890625 57.175781 97.757812 57.171875 97.605469 57.207031 C 87.414062 59.789062 78.125 65.511719 71.257812 73.484375 C 71.234375 73.511719 71.21875 73.539062 71.195312 73.566406 C 70.988281 73.78125 70.871094 74.082031 70.945312 74.453125 C 70.996094 74.71875 71.042969 74.988281 71.078125 75.253906 C 68.6875 75.207031 66.390625 76.222656 64.753906 77.929688 C 64.523438 77.84375 64.253906 77.859375 63.976562 78.046875 C 63.777344 78.183594 63.582031 78.324219 63.386719 78.460938 C 63.191406 78.527344 63.015625 78.652344 62.882812 78.8125 C 51.332031 86.746094 40.535156 95.746094 30.667969 105.699219 C 24.535156 106.296875 19.894531 111.089844 15.644531 115.105469 C 10.316406 120.144531 5.289062 125.488281 0.574219 131.105469 C 0.5625 131.117188 0.558594 131.128906 0.550781 131.144531 C 0.199219 131.328125 -0.0195312 131.699219 0.15625 132.191406 C 8.710938 155.929688 27.359375 173.761719 44.90625 191.085938 L 105.117188 250.535156 C 124.335938 269.511719 143.257812 288.871094 163.277344 307.007812 C 182.417969 324.351562 202.953125 340.515625 226.03125 352.316406 C 236.320312 357.578125 247.433594 362.769531 259.128906 363.539062 C 269.460938 364.214844 280.480469 360.527344 286.617188 351.789062 C 288.007812 349.808594 289.011719 347.601562 289.667969 345.277344 " fill-opacity="1" fill-rule="nonzero"/></svg>