<svg xmlns="http://www.w3.org/2000/svg" xmlns:xlink="http://www.w3.org/1999/xlink" width="317" zoomAndPan="magnify" viewBox="0 0 237.75 139.500001" height="185" preserveAspectRatio="xMidYMid meet" version="1.0"><defs><clipPath id="1e5a4585c4"><path d="M 0.300781 0 L 237.199219 0 L 237.199219 139 L 0.300781 139 Z M 0.300781 0 " clip-rule="nonzero"/></clipPath><clipPath id="a83c6d979b"><path d="M 0.300781 0 L 237.199219 0 L 237.199219 124 L 0.300781 124 Z M 0.300781 0 " clip-rule="nonzero"/></clipPath><clipPath id="384c886673"><path d="M 0.300781 22 L 153 22 L 153 139 L 0.300781 139 Z M 0.300781 22 " clip-rule="nonzero"/></clipPath><clipPath id="a8818d3867"><path d="M 95 22 L 237.199219 22 L 237.199219 139 L 95 139 Z M 95 22 " clip-rule="nonzero"/></clipPath><clipPath id="67989efa13"><path d="M 0.300781 42 L 51 42 L 51 51 L 0.300781 51 Z M 0.300781 42 " clip-rule="nonzero"/></clipPath></defs><g clip-path="url(#1e5a4585c4)"><path stroke-linecap="round" transform="matrix(8.085354, 0, 0, 8.092551, -13.445104, -52.292008)" fill="none" stroke-linejoin="miter" d="M 5.818268 10.517366 L 6.183995 8.796551 C 6.212983 8.674429 6.251633 8.555203 6.300429 8.438873 C 6.348741 8.323025 6.406233 8.211522 6.472905 8.104846 C 6.539576 7.99817 6.614461 7.897287 6.697076 7.802678 C 6.780173 7.708069 6.870035 7.620701 6.967143 7.540573 C 7.064252 7.460928 7.167158 7.389007 7.275861 7.325773 C 7.384565 7.262057 7.497616 7.207995 7.615016 7.163104 C 7.732416 7.118214 7.852714 7.082977 7.975912 7.057394 C 8.099109 7.031811 8.223756 7.016365 8.349369 7.011055 L 28.943124 7.011055 C 28.998684 7.008641 29.05376 7.009607 29.108837 7.013951 C 29.163913 7.017813 29.218506 7.025536 29.272617 7.036155 C 29.32721 7.046774 29.380354 7.060773 29.433015 7.077667 C 29.485675 7.094561 29.53737 7.114835 29.587132 7.138004 C 29.637377 7.161174 29.686173 7.187239 29.733519 7.215718 C 29.780383 7.24468 29.825796 7.276056 29.869278 7.310327 C 29.912759 7.344599 29.953825 7.381283 29.992958 7.420382 C 30.032092 7.45948 30.068809 7.500992 30.103111 7.544435 C 30.137413 7.587878 30.168816 7.633251 30.197804 7.680073 C 30.226308 7.727377 30.252397 7.77613 30.275587 7.82633 C 30.298777 7.876531 30.318586 7.928179 30.335495 7.980793 C 30.352405 8.033407 30.366415 8.086504 30.377044 8.141049 C 30.387673 8.195111 30.395403 8.249655 30.399268 8.304683 C 30.403616 8.360193 30.404582 8.41522 30.402167 8.470248 C 30.399751 8.525758 30.394437 8.580785 30.38574 8.63533 C 30.376561 8.689875 30.364483 8.743454 30.349506 8.796551 L 27.696657 21.278129 C 27.667187 21.400252 27.628537 21.519478 27.580224 21.635808 C 27.531428 21.751655 27.473936 21.863158 27.407265 21.969834 C 27.340593 22.07651 27.266192 22.177394 27.183094 22.272003 C 27.100479 22.366611 27.010135 22.453979 26.913026 22.534107 C 26.816401 22.614235 26.713495 22.685674 26.604791 22.748907 C 26.496088 22.812623 26.383036 22.866685 26.265636 22.911576 C 26.147753 22.95695 26.027455 22.992186 25.904258 23.017769 C 25.78106 23.04287 25.656897 23.058316 25.531284 23.063626 L 4.937045 23.063626 C 4.881969 23.066039 4.826892 23.065074 4.771333 23.060729 C 4.716256 23.056868 4.661663 23.049145 4.607553 23.038525 C 4.553443 23.027906 4.499816 23.013908 4.447155 22.997013 C 4.394494 22.980119 4.343283 22.959846 4.293037 22.936676 C 4.242792 22.913507 4.193996 22.887924 4.147133 22.858962 C 4.099787 22.83 4.054373 22.798625 4.010891 22.764353 C 3.96741 22.730082 3.926344 22.693397 3.887211 22.654299 C 3.848078 22.6152 3.81136 22.573688 3.777541 22.530728 C 3.743239 22.487285 3.711836 22.441912 3.682848 22.394608 C 3.653861 22.347303 3.627772 22.298551 3.605065 22.24835 C 3.581875 22.19815 3.561584 22.146984 3.544674 22.09437 C 3.527765 22.041756 3.513754 21.988177 3.503125 21.934115 C 3.492497 21.87957 3.48525 21.825025 3.480902 21.769998 C 3.476553 21.71497 3.475587 21.65946 3.478003 21.604433 C 3.480418 21.548922 3.486216 21.494378 3.494912 21.439833 C 3.503609 21.384806 3.515687 21.331226 3.530664 21.278129 L 3.864504 19.709364 " stroke="#000000" stroke-width="1" stroke-opacity="1" stroke-miterlimit="4"/></g><g clip-path="url(#a83c6d979b)"><path stroke-linecap="round" transform="matrix(8.085354, 0, 0, 8.092551, -13.445104, -52.292008)" fill="none" stroke-linejoin="miter" d="M 7.389396 7.647732 L 15.692893 15.670156 C 15.77116 15.733389 15.854258 15.789382 15.942187 15.838617 C 16.029633 15.887852 16.120943 15.928882 16.215636 15.96267 C 16.310812 15.995976 16.407438 16.021559 16.506479 16.038454 C 16.605519 16.055831 16.705527 16.064519 16.806017 16.064519 C 16.906507 16.065002 17.006515 16.056796 17.105556 16.039902 C 17.20508 16.023007 17.302188 15.997907 17.396881 15.964601 C 17.491574 15.931295 17.583368 15.890749 17.671297 15.841513 C 17.759226 15.792761 17.842324 15.737251 17.92059 15.6745 L 29.634961 7.70276 " stroke="#000000" stroke-width="1" stroke-opacity="1" stroke-miterlimit="4"/></g><g clip-path="url(#384c886673)"><path stroke-linecap="round" transform="matrix(8.085354, 0, 0, 8.092551, -13.445104, -52.292008)" fill="none" stroke-linejoin="miter" d="M 14.850804 14.855846 L 4.194963 22.369025 " stroke="#000000" stroke-width="1" stroke-opacity="1" stroke-miterlimit="4"/></g><g clip-path="url(#a8818d3867)"><path stroke-linecap="round" transform="matrix(8.085354, 0, 0, 8.092551, -13.445104, -52.292008)" fill="none" stroke-linejoin="miter" d="M 26.562759 22.374817 L 19.11198 14.864052 " stroke="#000000" stroke-width="1" stroke-opacity="1" stroke-miterlimit="4"/></g><g clip-path="url(#67989efa13)"><path stroke-linecap="round" transform="matrix(8.085354, 0, 0, 8.092551, -13.445104, -52.292008)" fill="none" stroke-linejoin="miter" d="M 7.447854 12.260867 L 2.171145 12.260867 " stroke="#000000" stroke-width="1" stroke-opacity="1" stroke-miterlimit="4"/></g><path stroke-linecap="round" transform="matrix(8.085354, 0, 0, 8.092551, -13.445104, -52.292008)" fill="none" stroke-linejoin="miter" d="M 9.916148 14.883843 L 3.747104 14.883843 " stroke="#000000" stroke-width="1" stroke-opacity="1" stroke-miterlimit="4"/><path stroke-linecap="round" transform="matrix(8.085354, 0, 0, 8.092551, -13.445104, -52.292008)" fill="none" stroke-linejoin="miter" d="M 7.447854 17.665143 L 2.427202 17.665143 " stroke="#000000" stroke-width="1" stroke-opacity="1" stroke-miterlimit="4"/></svg>