<svg xmlns="http://www.w3.org/2000/svg" xmlns:xlink="http://www.w3.org/1999/xlink" width="500" zoomAndPan="magnify" viewBox="0 0 375 374.999991" height="500" preserveAspectRatio="xMidYMid meet" version="1.0"><path fill="#259f87" d="M 19.226562 355.738281 C 0.558594 337.074219 0.554688 306.859375 19.226562 288.191406 L 140.921875 166.492188 C 143.714844 163.703125 148.238281 163.703125 151.03125 166.492188 L 208.472656 223.933594 C 211.261719 226.726562 211.261719 231.25 208.472656 234.042969 L 86.773438 355.738281 C 68.109375 374.402344 37.894531 374.410156 19.226562 355.738281 Z M 145.976562 181.652344 L 29.332031 298.296875 C 16.253906 311.375 16.25 332.550781 29.332031 345.632812 C 42.414062 358.710938 63.585938 358.714844 76.667969 345.632812 L 193.308594 228.988281 Z M 145.976562 181.652344 " fill-opacity="1" fill-rule="nonzero"/><path fill="#259f87" d="M 174.4375 257.96875 L 116.996094 200.527344 C 114.203125 197.738281 114.203125 193.210938 116.996094 190.421875 C 119.785156 187.628906 124.308594 187.628906 127.101562 190.421875 L 184.542969 247.863281 C 187.335938 250.652344 187.335938 255.179688 184.542969 257.96875 C 181.75 260.761719 177.226562 260.757812 174.4375 257.96875 Z M 174.4375 257.96875 " fill-opacity="1" fill-rule="nonzero"/><path fill="#259f87" d="M 149.167969 283.238281 L 91.726562 225.796875 C 88.9375 223.003906 88.9375 218.480469 91.726562 215.6875 C 94.519531 212.898438 99.042969 212.898438 101.835938 215.6875 L 159.277344 273.128906 C 162.066406 275.921875 162.066406 280.445312 159.277344 283.238281 C 156.484375 286.027344 151.960938 286.027344 149.167969 283.238281 Z M 149.167969 283.238281 " fill-opacity="1" fill-rule="nonzero"/><path fill="#259f87" d="M 185.597656 221.277344 L 153.6875 189.367188 C 150.894531 186.574219 150.894531 182.050781 153.6875 179.257812 L 273.410156 59.535156 L 279.257812 41.988281 C 279.738281 40.554688 280.65625 39.308594 281.886719 38.433594 L 326.5625 6.519531 C 329.40625 4.488281 333.300781 4.8125 335.769531 7.28125 L 367.683594 39.195312 C 370.152344 41.664062 370.476562 45.558594 368.445312 48.402344 L 336.53125 93.078125 C 335.65625 94.308594 334.410156 95.226562 332.976562 95.703125 L 315.429688 101.554688 L 195.707031 221.277344 C 192.921875 224.0625 188.394531 224.074219 185.597656 221.277344 Z M 168.847656 184.3125 L 190.652344 206.117188 L 306.515625 90.253906 C 307.300781 89.46875 308.257812 88.878906 309.308594 88.527344 L 326.25 82.878906 L 353.292969 45.019531 L 329.945312 21.671875 L 292.085938 48.714844 L 286.4375 65.65625 C 286.085938 66.707031 285.496094 67.664062 284.710938 68.449219 Z M 168.847656 184.3125 " fill-opacity="1" fill-rule="nonzero"/><path fill="#259f87" d="M 264.75 351.695312 C 247.667969 334.613281 242.242188 308.792969 250.710938 286.394531 L 185.597656 221.28125 C 182.804688 218.488281 182.804688 213.964844 185.597656 211.171875 C 188.390625 208.382812 192.914062 208.382812 195.707031 211.171875 L 263.34375 278.8125 C 265.964844 281.464844 266.679688 285.484375 265.15625 288.847656 C 257.171875 306.597656 261.070312 327.796875 274.859375 341.589844 C 286.4375 353.167969 303.039062 357.746094 318.585938 354.273438 L 296.78125 332.472656 C 293.992188 329.683594 293.992188 325.15625 296.78125 322.363281 L 322.414062 296.734375 C 325.207031 293.941406 329.730469 293.941406 332.523438 296.734375 L 354.320312 318.53125 C 357.789062 302.992188 353.214844 286.382812 341.640625 274.808594 C 327.847656 261.015625 306.648438 257.121094 288.882812 265.113281 C 285.53125 266.628906 281.515625 265.910156 278.894531 263.328125 L 211.222656 195.65625 C 208.429688 192.863281 208.429688 188.339844 211.222656 185.546875 C 214.015625 182.757812 218.539062 182.757812 221.328125 185.546875 L 286.445312 250.664062 C 308.851562 242.191406 334.664062 247.617188 351.746094 264.699219 C 370.136719 283.089844 374.964844 311.226562 363.761719 334.707031 C 361.644531 339.144531 355.757812 340.179688 352.257812 336.683594 L 327.46875 311.894531 L 311.945312 327.417969 L 336.734375 352.207031 C 340.214844 355.691406 339.214844 361.585938 334.757812 363.710938 C 311.179688 374.96875 283.066406 370.015625 264.75 351.695312 Z M 264.75 351.695312 " fill-opacity="1" fill-rule="nonzero"/><path fill="#259f87" d="M 153.683594 189.367188 L 88.570312 124.25 C 66.160156 132.71875 40.347656 127.292969 23.269531 110.214844 C 4.871094 91.816406 0.0429688 63.683594 11.253906 40.207031 C 13.375 35.761719 19.269531 34.742188 22.757812 38.230469 L 47.546875 63.019531 L 63.070312 47.496094 L 38.28125 22.707031 C 34.800781 19.226562 35.800781 13.328125 40.257812 11.203125 C 63.738281 0 91.875 4.828125 110.265625 23.21875 C 127.351562 40.304688 132.773438 66.125 124.304688 88.519531 L 189.417969 153.636719 C 192.207031 156.425781 192.207031 160.953125 189.417969 163.742188 C 186.625 166.535156 182.101562 166.535156 179.308594 163.742188 L 111.671875 96.105469 C 109.050781 93.449219 108.335938 89.429688 109.855469 86.066406 C 117.84375 68.316406 113.949219 47.117188 100.15625 33.328125 C 88.582031 21.75 71.976562 17.175781 56.429688 20.644531 L 78.230469 42.445312 C 81.019531 45.234375 81.023438 49.761719 78.230469 52.550781 L 52.601562 78.183594 C 51.257812 79.523438 49.441406 80.277344 47.546875 80.277344 C 45.652344 80.277344 43.832031 79.523438 42.492188 78.183594 L 20.691406 56.378906 C 17.21875 71.921875 21.792969 88.527344 33.375 100.105469 C 47.164062 113.894531 68.367188 117.792969 86.128906 109.800781 C 89.480469 108.285156 93.5 109 96.117188 111.585938 L 163.792969 179.257812 C 166.582031 182.050781 166.582031 186.574219 163.792969 189.367188 C 161 192.160156 156.476562 192.15625 153.683594 189.367188 Z M 153.683594 189.367188 " fill-opacity="1" fill-rule="nonzero"/></svg>